<?xml version="1.0" standalone="no"?>
<!DOCTYPE svg PUBLIC "-//W3C//DTD SVG 20010904//EN"
 "http://www.w3.org/TR/2001/REC-SVG-20010904/DTD/svg10.dtd">
<svg version="1.0" xmlns="http://www.w3.org/2000/svg"
 width="432.000000pt" height="432.000000pt" viewBox="0 0 432.000000 432.000000"
 preserveAspectRatio="xMidYMid meet">

<g transform="translate(0.000000,432.000000) scale(0.100000,-0.100000)"
fill="#000000" stroke="none">
<path d="M2196 4078 c-3 -13 -6 -85 -6 -160 l0 -138 -65 0 -65 0 0 -467 -1
-468 -29 57 c-41 79 -56 83 -19 5 90 -193 59 -399 -84 -553 -149 -161 -391
-202 -592 -102 -22 11 -35 15 -30 10 6 -6 39 -25 74 -42 54 -27 79 -33 160
-37 57 -3 119 -1 151 6 181 39 337 194 380 379 l12 52 54 0 54 0 0 -42 c0 -63
6 -68 67 -56 52 10 52 11 56 52 l4 41 1 -42 c1 -24 6 -43 11 -43 6 0 12 19 14
43 l4 42 1 -42 c1 -30 6 -43 16 -43 8 0 21 -3 30 -6 12 -4 16 4 19 43 l3 48 2
-47 c1 -27 6 -48 11 -48 6 0 12 21 14 48 l3 47 2 -50 2 -51 48 -14 c104 -31
133 -17 140 65 l4 55 64 0 64 0 0 580 0 580 -65 0 -65 0 0 145 c0 136 -1 145
-19 145 -11 0 -22 6 -24 13 -4 10 -6 10 -6 0 -1 -10 -43 -13 -176 -13 -149 0
-175 2 -175 15 0 24 -37 18 -44 -7z m84 -298 l30 0 2 133 2 132 3 -132 c2 -77
8 -133 13 -133 6 0 11 55 12 133 l2 132 3 -132 c3 -111 6 -133 19 -133 9 0 12
-5 8 -12 -6 -10 -4 -10 7 0 16 15 33 16 24 1 -4 -6 2 -5 14 3 19 12 21 23 23
143 l2 130 3 -132 c3 -111 6 -133 19 -133 8 0 12 -5 9 -11 -4 -6 2 -5 14 3 19
12 21 23 23 143 l2 130 3 -132 c2 -77 8 -133 13 -133 6 0 11 55 12 133 l2 132
3 -129 c3 -93 0 -132 -9 -144 -11 -14 -10 -15 7 -8 11 4 25 8 30 9 10 2 13
-349 3 -445 -2 -27 0 -48 4 -48 5 0 5 -8 1 -17 -5 -10 -7 -37 -6 -60 4 -65 4
-65 0 -115 -2 -27 0 -48 5 -48 9 0 1 -396 -8 -412 -3 -5 -12 -1 -20 9 -13 17
-13 17 -14 -2 -1 -19 -1 -19 -14 -2 -11 14 -15 15 -19 5 -5 -11 -7 -11 -15 0
-7 11 -11 10 -16 -4 -6 -16 -8 -16 -21 2 -14 19 -14 19 -15 -1 -1 -20 -1 -20
-15 -1 -15 20 -15 20 -15 0 -1 -18 -1 -18 -14 -1 -12 15 -14 16 -20 2 -3 -8
-10 -15 -16 -15 -6 0 -9 4 -5 9 3 5 1 12 -5 16 -5 3 -10 -2 -10 -12 -1 -17 -2
-17 -15 1 -8 11 -15 15 -15 9 0 -6 -7 -13 -14 -16 -11 -4 -13 -1 -10 11 5 15
4 15 -6 0 -6 -10 -18 -18 -25 -18 -13 0 -15 96 -13 713 1 391 4 652 5 580 l4
-133 29 0z m10 155 c0 -63 -4 -105 -10 -105 -6 0 -10 42 -10 105 0 63 4 105
10 105 6 0 10 -42 10 -105z m100 1 c0 -59 -4 -108 -10 -111 -6 -4 -10 33 -10
104 0 67 4 111 10 111 6 0 10 -41 10 -104z m27 -93 c-2 -38 -3 -7 -3 67 0 74
1 105 3 68 2 -38 2 -98 0 -135z m73 93 c0 -59 -4 -108 -10 -111 -6 -4 -10 33
-10 104 0 67 4 111 10 111 6 0 10 -41 10 -104z m99 2 c-2 -156 -17 -177 -18
-25 -1 78 3 127 9 127 6 0 10 -40 9 -102z m-342 -1390 c-2 -13 -4 -3 -4 22 0
25 2 35 4 23 2 -13 2 -33 0 -45z m43 40 c0 -12 -3 -18 -7 -14 -11 10 -12 36
-2 36 5 0 9 -10 9 -22z m100 8 c0 -8 -4 -18 -10 -21 -5 -3 -10 3 -10 14 0 12
5 21 10 21 6 0 10 -6 10 -14z m100 0 c0 -8 -4 -18 -10 -21 -5 -3 -10 3 -10 14
0 12 5 21 10 21 6 0 10 -6 10 -14z m27 -63 c-2 -16 -4 -3 -4 27 0 30 2 43 4
28 2 -16 2 -40 0 -55z m30 0 c-2 -16 -4 -3 -4 27 0 30 2 43 4 28 2 -16 2 -40
0 -55z m30 0 c-2 -16 -4 -3 -4 27 0 30 2 43 4 28 2 -16 2 -40 0 -55z"/>
<path d="M2392 3465 c0 -16 2 -22 5 -12 2 9 2 23 0 30 -3 6 -5 -1 -5 -18z"/>
<path d="M2320 3450 c0 -5 5 -10 10 -10 6 0 10 5 10 10 0 6 -4 10 -10 10 -5 0
-10 -4 -10 -10z"/>
<path d="M2443 3373 c26 -2 67 -2 90 0 23 2 2 3 -48 3 -49 0 -68 -1 -42 -3z"/>
<path d="M2257 3028 c7 -13 313 -10 313 3 0 7 -51 9 -159 7 -87 -2 -157 -6
-154 -10z"/>
<path d="M2320 2935 c0 -14 4 -25 9 -25 12 0 19 21 13 38 -8 21 -22 13 -22
-13z"/>
<path d="M2386 2943 c-4 -9 -3 -20 2 -25 6 -6 11 1 14 16 6 29 -6 35 -16 9z"/>
<path d="M2382 2875 c0 -16 2 -22 5 -12 2 9 2 23 0 30 -3 6 -5 -1 -5 -18z"/>
<path d="M2320 2831 c0 -6 5 -13 10 -16 6 -3 10 1 10 9 0 9 -4 16 -10 16 -5 0
-10 -4 -10 -9z"/>
<path d="M2390 2815 c0 -14 4 -25 9 -25 4 0 6 11 3 25 -2 14 -6 25 -8 25 -2 0
-4 -11 -4 -25z"/>
<path d="M2316 2712 c-2 -4 0 -14 5 -22 8 -13 10 -13 18 0 10 15 6 30 -9 30
-5 0 -11 -4 -14 -8z"/>
<path d="M2386 2712 c-10 -16 8 -37 23 -28 6 4 11 13 11 19 0 8 -3 7 -9 -2 -7
-11 -10 -10 -13 5 -3 15 -5 16 -12 6z"/>
<path d="M3584 4087 c-3 -8 -4 -47 -2 -88 l3 -74 93 -3 c63 -2 92 1 87 8 -3 6
3 10 14 10 12 0 21 -4 21 -10 0 -6 32 -10 75 -10 85 0 76 -13 78 110 l2 65
-183 3 c-147 2 -183 0 -188 -11z"/>
<path d="M3589 3883 c0 -5 1 -98 1 -208 2 -244 16 -346 21 -150 3 128 3 128 6
33 2 -54 7 -98 11 -98 4 0 8 52 9 115 1 103 -6 138 -20 103 -3 -7 -6 -1 -6 15
-1 26 0 27 55 27 40 0 55 -4 52 -12 -3 -7 -19 -14 -36 -16 l-32 -3 0 -75 c0
-95 18 -97 22 -1 l3 72 5 -75 c3 -41 2 -109 -1 -150 l-5 -75 -2 73 c-3 100
-22 93 -22 -9 0 -76 1 -81 20 -76 10 3 27 -1 37 -8 16 -12 11 -14 -37 -13 -30
0 -58 5 -62 11 -4 7 -8 -7 -8 -31 0 -56 31 -67 144 -48 35 6 50 5 56 -4 9 -15
124 -10 139 6 5 5 11 142 12 304 l3 295 -182 3 c-100 1 -182 -1 -183 -5z m257
-180 c13 -17 14 -17 8 0 -5 14 0 17 39 17 l45 0 0 -184 1 -184 -77 0 c-42 1
-81 4 -87 8 -5 5 -21 10 -35 12 l-25 3 0 160 0 160 38 3 c20 2 37 7 37 13 0
16 42 10 56 -8z"/>
<path d="M3805 3651 c-3 -5 -1 -12 5 -16 5 -3 10 1 10 9 0 18 -6 21 -15 7z"/>
<path d="M3840 3644 c0 -8 5 -12 10 -9 6 3 10 10 10 16 0 5 -4 9 -10 9 -5 0
-10 -7 -10 -16z"/>
<path d="M3881 3644 c0 -11 3 -14 6 -6 3 7 2 16 -1 19 -3 4 -6 -2 -5 -13z"/>
<path d="M3730 3600 c0 -11 2 -20 4 -20 2 0 6 9 9 20 3 11 1 20 -4 20 -5 0 -9
-9 -9 -20z"/>
<path d="M3772 3600 c0 -14 2 -19 5 -12 2 6 2 18 0 25 -3 6 -5 1 -5 -13z"/>
<path d="M3840 3580 c0 -5 5 -10 11 -10 5 0 7 5 4 10 -3 6 -8 10 -11 10 -2 0
-4 -4 -4 -10z"/>
<path d="M3881 3574 c0 -11 3 -14 6 -6 3 7 2 16 -1 19 -3 4 -6 -2 -5 -13z"/>
<path d="M3772 3515 c0 -16 2 -22 5 -12 2 9 2 23 0 30 -3 6 -5 -1 -5 -18z"/>
<path d="M3735 3519 c-4 -6 -5 -12 -2 -15 2 -3 7 2 10 11 7 17 1 20 -8 4z"/>
<path d="M3841 3484 c0 -11 3 -14 6 -6 3 7 2 16 -1 19 -3 4 -6 -2 -5 -13z"/>
<path d="M3881 3484 c0 -11 3 -14 6 -6 3 7 2 16 -1 19 -3 4 -6 -2 -5 -13z"/>
<path d="M3805 3480 c3 -5 8 -10 11 -10 2 0 4 5 4 10 0 6 -5 10 -11 10 -5 0
-7 -4 -4 -10z"/>
<path d="M3910 3431 c0 -23 4 -41 8 -41 12 0 14 68 2 75 -6 4 -10 -9 -10 -34z"/>
<path d="M3805 3421 c-3 -5 -1 -12 5 -16 5 -3 10 1 10 9 0 18 -6 21 -15 7z"/>
<path d="M3840 3414 c0 -8 5 -12 10 -9 6 4 8 11 5 16 -9 14 -15 11 -15 -7z"/>
<path d="M3881 3414 c0 -11 3 -14 6 -6 3 7 2 16 -1 19 -3 4 -6 -2 -5 -13z"/>
<path d="M843 3836 c-43 -12 -73 -26 -73 -34 0 -22 31 -26 61 -8 16 9 34 14
39 11 14 -9 47 3 53 19 11 28 -9 31 -80 12z"/>
<path d="M356 3779 c-4 -22 -10 -30 -21 -25 -8 3 -15 1 -15 -4 0 -6 11 -10 25
-10 22 0 25 4 25 35 0 43 -6 45 -14 4z"/>
<path d="M490 3774 c0 -21 4 -33 10 -29 6 3 10 19 10 36 0 16 -4 29 -10 29 -5
0 -10 -16 -10 -36z"/>
<path d="M630 3775 c0 -19 5 -35 10 -35 6 0 10 16 10 35 0 19 -4 35 -10 35 -5
0 -10 -16 -10 -35z"/>
<path d="M140 3765 c0 -14 6 -25 13 -25 17 0 17 38 0 44 -8 4 -13 -3 -13 -19z"/>
<path d="M215 3782 c-17 -12 -17 -42 0 -42 8 0 15 3 16 8 0 4 2 15 4 25 3 18
-4 21 -20 9z"/>
<path d="M281 3764 c0 -11 3 -14 6 -6 3 7 2 16 -1 19 -3 4 -6 -2 -5 -13z"/>
<path d="M1203 3759 c-6 -21 -7 -21 -19 -4 -22 29 -29 8 -11 -30 24 -51 47
-46 47 10 0 48 -8 59 -17 24z"/>
<path d="M1250 3770 c0 -5 11 -17 25 -26 14 -9 25 -20 25 -25 0 -5 -11 -9 -25
-9 -14 0 -25 -5 -25 -11 0 -6 14 -9 33 -7 48 5 49 39 3 66 -20 12 -36 17 -36
12z"/>
<path d="M873 3746 c-34 -12 -64 -24 -67 -27 -12 -12 20 -54 42 -56 19 -3 21
0 13 16 -14 25 3 39 54 43 32 2 40 7 40 22 0 26 -10 26 -82 2z"/>
<path d="M1034 3756 c-3 -8 -4 -25 -2 -38 2 -18 10 -24 36 -26 18 -2 32 1 32
7 0 6 -11 11 -25 11 -14 0 -25 5 -25 10 0 6 14 10 30 10 32 0 37 9 18 28 -17
17 -57 15 -64 -2z m46 -6 c0 -5 -7 -10 -15 -10 -8 0 -15 5 -15 10 0 6 7 10 15
10 8 0 15 -4 15 -10z"/>
<path d="M1137 3763 c-11 -10 -8 -73 3 -73 6 0 10 18 10 40 0 41 -2 45 -13 33z"/>
<path d="M1350 3730 c0 -22 5 -40 10 -40 6 0 10 9 10 20 0 11 6 20 13 20 18 0
53 27 45 35 -3 3 -16 0 -28 -7 -18 -10 -24 -10 -27 0 -10 26 -23 10 -23 -28z"/>
<path d="M2882 3618 c-2 -145 2 -161 30 -152 13 4 24 1 29 -7 6 -10 9 -11 9
-1 0 9 33 12 129 12 94 0 131 -3 134 -12 4 -10 8 -9 16 2 9 12 14 13 31 2 12
-7 20 -8 20 -2 0 14 37 12 43 -2 4 -10 6 -10 6 0 1 15 33 16 49 0 9 -9 12 -9
12 0 0 7 9 10 21 9 23 -4 23 -5 27 -340 1 -76 6 -116 12 -112 15 9 13 238 -2
253 -9 9 -9 12 1 12 9 0 12 25 10 98 -1 53 0 102 1 107 1 6 2 65 1 133 l-1
122 -272 -2 -273 -3 0 -62 c0 -34 -4 -65 -8 -70 -5 -4 -7 25 -5 65 2 48 -1 72
-8 72 -8 0 -12 -40 -12 -122z m555 15 c-2 -21 -4 -6 -4 32 0 39 2 55 4 38 2
-18 2 -50 0 -70z m-320 -19 c-3 -3 -12 -4 -19 -1 -8 3 -5 6 6 6 11 1 17 -2 13
-5z m130 0 c-3 -3 -12 -4 -19 -1 -8 3 -5 6 6 6 11 1 17 -2 13 -5z m-17 -35 c0
-5 -22 -8 -50 -8 -51 2 -69 15 -27 21 32 5 77 -3 77 -13z m-247 4 c-7 -2 -19
-2 -25 0 -7 3 -2 5 12 5 14 0 19 -2 13 -5z m406 3 c-11 -9 -99 -15 -99 -6 0 6
23 10 52 10 28 0 49 -2 47 -4z"/>
<path d="M954 3665 c-4 -8 -14 -15 -23 -15 -15 -1 -15 -1 1 -10 22 -13 48 -2
48 21 0 23 -18 25 -26 4z"/>
<path d="M847 3653 c-30 -5 -32 -20 -5 -36 11 -8 23 -5 42 10 21 17 23 22 10
27 -9 3 -16 5 -17 5 -1 -1 -15 -4 -30 -6z"/>
<path d="M455 3630 c3 -5 11 -10 16 -10 6 0 7 5 4 10 -3 6 -11 10 -16 10 -6 0
-7 -4 -4 -10z"/>
<path d="M2895 3444 c-15 -6 -12 -157 3 -162 9 -3 12 20 12 82 0 47 -1 86 -2
85 -2 0 -7 -2 -13 -5z"/>
<path d="M3627 3443 c-11 -10 -8 -63 3 -63 6 0 10 16 10 35 0 36 -2 40 -13 28z"/>
<path d="M3210 3427 c0 -9 -4 -17 -10 -17 -5 0 -10 -9 -10 -20 0 -11 4 -20 9
-20 10 0 24 60 16 68 -3 3 -5 -2 -5 -11z"/>
<path d="M3260 3429 c0 -5 5 -7 10 -4 6 3 10 8 10 11 0 2 -4 4 -10 4 -5 0 -10
-5 -10 -11z"/>
<path d="M180 3407 c0 -25 17 -47 37 -47 19 0 16 41 -4 56 -26 19 -33 17 -33
-9z"/>
<path d="M295 3415 c-28 -14 -31 -55 -5 -55 23 0 33 18 28 47 -2 15 -7 17 -23
8z"/>
<path d="M460 3396 c0 -25 5 -35 20 -39 16 -4 20 0 20 22 0 15 -8 31 -20 39
-19 11 -20 10 -20 -22z"/>
<path d="M559 3413 c-10 -2 -16 -14 -16 -29 0 -37 41 -29 45 9 3 27 1 28 -29
20z"/>
<path d="M2973 3355 c0 -33 2 -45 4 -27 2 18 2 45 0 60 -2 15 -4 0 -4 -33z"/>
<path d="M2993 3370 c0 -25 2 -35 4 -22 2 12 2 32 0 45 -2 12 -4 2 -4 -23z"/>
<path d="M3037 3390 c3 -11 7 -20 9 -20 2 0 4 9 4 20 0 11 -4 20 -9 20 -5 0
-7 -9 -4 -20z"/>
<path d="M3083 3355 c0 -33 2 -45 4 -27 2 18 2 45 0 60 -2 15 -4 0 -4 -33z"/>
<path d="M3145 3383 c-15 -52 -14 -83 1 -83 10 0 14 14 14 55 0 61 -4 69 -15
28z"/>
<path d="M3242 3390 c0 -14 2 -19 5 -12 2 6 2 18 0 25 -3 6 -5 1 -5 -13z"/>
<path d="M3262 3390 c0 -14 2 -19 5 -12 2 6 2 18 0 25 -3 6 -5 1 -5 -13z"/>
<path d="M3290 3400 c0 -5 6 -10 13 -10 8 0 7 -4 -3 -10 -13 -8 -12 -10 3 -10
10 0 17 8 17 20 0 11 -7 20 -15 20 -8 0 -15 -4 -15 -10z"/>
<path d="M3352 3390 c0 -14 2 -19 5 -12 2 6 2 18 0 25 -3 6 -5 1 -5 -13z"/>
<path d="M240 3360 c0 -5 5 -10 11 -10 5 0 7 5 4 10 -3 6 -8 10 -11 10 -2 0
-4 -4 -4 -10z"/>
<path d="M3190 3340 c0 -11 5 -20 10 -20 6 0 10 9 10 20 0 11 -4 20 -10 20 -5
0 -10 -9 -10 -20z"/>
<path d="M3242 3340 c0 -14 2 -19 5 -12 2 6 2 18 0 25 -3 6 -5 1 -5 -13z"/>
<path d="M3262 3340 c0 -14 2 -19 5 -12 2 6 2 18 0 25 -3 6 -5 1 -5 -13z"/>
<path d="M3300 3350 c-13 -9 -13 -10 0 -10 13 0 13 -1 0 -10 -13 -8 -12 -10 3
-10 10 0 17 8 17 20 0 23 0 23 -20 10z"/>
<path d="M3352 3340 c0 -14 2 -19 5 -12 2 6 2 18 0 25 -3 6 -5 1 -5 -13z"/>
<path d="M3371 3334 c0 -11 3 -14 6 -6 3 7 2 16 -1 19 -3 4 -6 -2 -5 -13z"/>
<path d="M3211 3294 c0 -11 3 -14 6 -6 3 7 2 16 -1 19 -3 4 -6 -2 -5 -13z"/>
<path d="M2973 3235 c0 -33 2 -45 4 -27 2 18 2 45 0 60 -2 15 -4 0 -4 -33z"/>
<path d="M3083 3235 c0 -33 2 -45 4 -27 2 18 2 45 0 60 -2 15 -4 0 -4 -33z"/>
<path d="M3103 3235 c0 -33 2 -45 4 -27 2 18 2 45 0 60 -2 15 -4 0 -4 -33z"/>
<path d="M3132 3263 c-1 -15 4 -30 10 -35 10 -6 10 -8 1 -8 -7 0 -13 -9 -13
-20 0 -11 7 -20 15 -20 12 0 15 13 15 55 0 38 -4 55 -13 55 -7 0 -14 -12 -15
-27z"/>
<path d="M3591 3264 c0 -11 3 -14 6 -6 3 7 2 16 -1 19 -3 4 -6 -2 -5 -13z"/>
<path d="M2888 3263 c-2 -5 -3 -62 -3 -127 0 -81 4 -121 12 -123 8 -3 11 33
12 126 0 73 -4 131 -9 131 -5 0 -10 -3 -12 -7z"/>
<path d="M3205 3260 c-3 -5 -1 -10 4 -10 6 0 11 5 11 10 0 6 -2 10 -4 10 -3 0
-8 -4 -11 -10z"/>
<path d="M3208 3210 c-3 -16 -1 -30 4 -30 4 0 8 14 8 30 0 17 -2 30 -4 30 -2
0 -6 -13 -8 -30z"/>
<path d="M3941 3224 c0 -11 3 -14 6 -6 3 7 2 16 -1 19 -3 4 -6 -2 -5 -13z"/>
<path d="M3037 3200 c-3 -11 -1 -20 4 -20 5 0 9 9 9 20 0 11 -2 20 -4 20 -2 0
-6 -9 -9 -20z"/>
<path d="M3591 3184 c0 -11 3 -14 6 -6 3 7 2 16 -1 19 -3 4 -6 -2 -5 -13z"/>
<path d="M3941 3184 c0 -11 3 -14 6 -6 3 7 2 16 -1 19 -3 4 -6 -2 -5 -13z"/>
<path d="M180 3171 c0 -33 11 -51 31 -51 30 0 25 44 -6 58 -22 10 -25 9 -25
-7z"/>
<path d="M294 3176 c-21 -9 -30 -51 -14 -61 15 -9 42 22 38 45 -3 21 -6 24
-24 16z"/>
<path d="M460 3170 c0 -21 7 -25 27 -12 9 6 7 11 -7 20 -17 11 -20 10 -20 -8z"/>
<path d="M3070 3145 c0 -8 4 -15 10 -15 5 0 7 7 4 15 -4 8 -8 15 -10 15 -2 0
-4 -7 -4 -15z"/>
<path d="M3125 3094 c2 -38 4 -72 4 -76 1 -5 8 -8 16 -8 12 0 15 13 15 55 0
43 -3 55 -16 55 -8 0 -13 4 -10 8 2 4 1 14 -4 22 -5 8 -7 -16 -5 -56z"/>
<path d="M3180 3149 c0 -5 5 -7 10 -4 6 3 10 8 10 11 0 2 -4 4 -10 4 -5 0 -10
-5 -10 -11z"/>
<path d="M3212 3140 c0 -14 2 -19 5 -12 2 6 2 18 0 25 -3 6 -5 1 -5 -13z"/>
<path d="M3940 3150 c0 -5 5 -10 11 -10 5 0 7 5 4 10 -3 6 -8 10 -11 10 -2 0
-4 -4 -4 -10z"/>
<path d="M3020 3140 c0 -5 5 -10 11 -10 5 0 7 5 4 10 -3 6 -8 10 -11 10 -2 0
-4 -4 -4 -10z"/>
<path d="M240 3120 c0 -5 5 -10 11 -10 5 0 7 5 4 10 -3 6 -8 10 -11 10 -2 0
-4 -4 -4 -10z"/>
<path d="M433 3115 c-3 -9 -1 -21 4 -26 5 -5 107 -8 249 -7 231 3 239 4 239
23 0 19 -8 20 -243 23 -214 2 -243 0 -249 -13z m407 -5 c0 -5 -5 -10 -11 -10
-5 0 -7 5 -4 10 3 6 8 10 11 10 2 0 4 -4 4 -10z m75 0 c3 -5 1 -10 -4 -10 -6
0 -11 5 -11 10 0 6 2 10 4 10 3 0 8 -4 11 -10z m-412 -7 c-7 -2 -19 -2 -25 0
-7 3 -2 5 12 5 14 0 19 -2 13 -5z m170 0 c-7 -2 -21 -2 -30 0 -10 3 -4 5 12 5
17 0 24 -2 18 -5z"/>
<path d="M3595 3081 c1 -35 4 -45 15 -42 31 8 70 7 70 -1 0 -5 6 -6 13 -1 16
11 57 11 57 1 0 -5 8 -5 18 0 9 5 23 7 30 5 6 -3 12 0 12 7 0 6 5 8 10 5 6 -4
8 -10 6 -14 -3 -4 -1 -21 4 -37 l10 -29 -4 29 c-4 32 18 66 28 43 5 -9 7 -9
12 1 8 17 27 15 21 -2 -3 -8 -2 -27 4 -43 l9 -28 -4 29 c-2 17 2 36 10 43 12
12 14 7 14 -36 0 -28 5 -51 10 -51 6 0 10 34 10 83 l0 82 -178 1 -178 0 1 -45z"/>
<path d="M2973 3065 c0 -33 2 -45 4 -27 2 18 2 45 0 60 -2 15 -4 0 -4 -33z"/>
<path d="M3014 3108 c-4 -7 -3 -8 4 -4 16 10 15 -26 0 -43 -7 -8 -8 -11 -2 -8
6 3 11 0 11 -8 0 -8 -5 -11 -11 -8 -6 4 -5 -1 3 -10 23 -29 31 -19 31 38 0 41
-4 55 -14 55 -8 0 -18 -5 -22 -12z"/>
<path d="M3082 3063 l2 -58 5 55 5 55 6 -55 7 -55 1 58 c2 45 -1 57 -13 57
-12 0 -15 -12 -13 -57z"/>
<path d="M3190 3090 c0 -11 5 -20 10 -20 6 0 10 9 10 20 0 11 -4 20 -10 20 -5
0 -10 -9 -10 -20z"/>
<path d="M3242 3090 c0 -14 2 -19 5 -12 2 6 2 18 0 25 -3 6 -5 1 -5 -13z"/>
<path d="M3262 3090 c0 -14 2 -19 5 -12 2 6 2 18 0 25 -3 6 -5 1 -5 -13z"/>
<path d="M3290 3099 c0 -5 5 -7 10 -4 6 3 10 2 10 -4 0 -5 -6 -12 -12 -14 -8
-3 -6 -6 5 -6 11 -1 17 6 17 19 0 11 -7 20 -15 20 -8 0 -15 -5 -15 -11z"/>
<path d="M3352 3090 c0 -14 2 -19 5 -12 2 6 2 18 0 25 -3 6 -5 1 -5 -13z"/>
<path d="M2992 3040 c0 -19 2 -27 5 -17 2 9 2 25 0 35 -3 9 -5 1 -5 -18z"/>
<path d="M3190 3041 c0 -11 4 -23 10 -26 9 -5 5 -93 -5 -103 -2 -3 1 -14 7
-26 10 -19 10 -20 -5 -7 -15 12 -17 11 -17 -3 0 -9 8 -16 20 -16 18 0 20 7 20
63 0 76 -10 137 -21 137 -5 0 -9 -9 -9 -19z"/>
<path d="M3242 3035 c0 -16 2 -22 5 -12 2 9 2 23 0 30 -3 6 -5 -1 -5 -18z"/>
<path d="M3310 3046 c0 -8 -5 -16 -12 -18 -7 -3 -6 -7 5 -11 13 -5 17 -1 17
18 0 14 -2 25 -5 25 -3 0 -5 -6 -5 -14z"/>
<path d="M3352 3035 c0 -16 2 -22 5 -12 2 9 2 23 0 30 -3 6 -5 -1 -5 -18z"/>
<path d="M1920 3046 c0 -2 8 -10 18 -17 15 -13 16 -12 3 4 -13 16 -21 21 -21
13z"/>
<path d="M3702 3031 c-9 -5 -12 -24 -10 -52 3 -44 19 -60 24 -25 1 10 9 23 16
27 9 7 10 11 2 17 -7 4 -13 15 -15 24 -3 12 -8 15 -17 9z"/>
<path d="M3620 2965 c0 -37 4 -65 10 -65 6 0 10 28 10 65 0 37 -4 65 -10 65
-6 0 -10 -28 -10 -65z"/>
<path d="M3653 2971 c1 -42 6 -57 15 -54 19 8 16 113 -3 113 -11 0 -14 -13
-12 -59z"/>
<path d="M3603 2955 c0 -38 2 -53 4 -32 2 20 2 52 0 70 -2 17 -4 1 -4 -38z"/>
<path d="M3763 2985 c0 -22 2 -30 4 -17 2 12 2 30 0 40 -3 9 -5 -1 -4 -23z"/>
<path d="M1950 3006 c0 -2 8 -10 18 -17 15 -13 16 -12 3 4 -13 16 -21 21 -21
13z"/>
<path d="M3263 2935 c0 -44 2 -61 4 -37 2 23 2 59 0 80 -2 20 -4 1 -4 -43z"/>
<path d="M3292 2990 c0 -14 2 -19 5 -12 2 6 2 18 0 25 -3 6 -5 1 -5 -13z"/>
<path d="M3373 2935 c0 -44 2 -61 4 -37 2 23 2 59 0 80 -2 20 -4 1 -4 -43z"/>
<path d="M648 2993 c7 -3 16 -2 19 1 4 3 -2 6 -13 5 -11 0 -14 -3 -6 -6z"/>
<path d="M2889 2993 c-6 -29 -3 -153 3 -153 5 0 8 10 9 23 5 115 5 137 -3 137
-4 0 -9 -3 -9 -7z"/>
<path d="M2973 2945 c0 -33 2 -45 4 -27 2 18 2 45 0 60 -2 15 -4 0 -4 -33z"/>
<path d="M2990 2936 c0 -53 -3 -65 -17 -69 -14 -4 -12 -5 5 -6 21 -1 22 3 22
69 0 39 -2 70 -5 70 -3 0 -5 -29 -5 -64z"/>
<path d="M3028 2974 c3 -17 1 -25 -5 -21 -18 11 -8 -45 11 -58 17 -13 17 -14
-1 -24 -16 -9 -16 -10 6 -11 19 0 22 4 17 23 -3 12 -6 43 -6 70 0 33 -4 47
-14 47 -9 0 -12 -8 -8 -26z"/>
<path d="M3083 2945 c0 -33 2 -45 4 -27 2 18 2 45 0 60 -2 15 -4 0 -4 -33z"/>
<path d="M3100 2936 c0 -53 -3 -65 -17 -69 -14 -4 -12 -5 5 -6 21 -1 22 3 22
69 0 39 -2 70 -5 70 -3 0 -5 -29 -5 -64z"/>
<path d="M3129 2980 c-1 -11 -1 -31 -1 -45 0 -41 1 -45 17 -45 12 0 15 13 15
55 0 42 -3 55 -15 55 -8 0 -16 -9 -16 -20z"/>
<path d="M3440 2936 c0 -35 -3 -71 -6 -80 -4 -11 -1 -16 10 -16 13 0 16 13 16
80 0 47 -4 80 -10 80 -6 0 -10 -28 -10 -64z"/>
<path d="M3310 2965 c0 -8 5 -15 10 -15 6 0 10 7 10 15 0 8 -4 15 -10 15 -5 0
-10 -7 -10 -15z"/>
<path d="M1106 2937 c3 -10 9 -15 12 -12 3 3 0 11 -7 18 -10 9 -11 8 -5 -6z"/>
<path d="M3412 2920 c0 -19 2 -27 5 -17 2 9 2 25 0 35 -3 9 -5 1 -5 -18z"/>
<path d="M180 2926 c0 -20 11 -46 19 -46 4 0 13 11 19 24 9 20 8 25 -4 30 -25
9 -34 7 -34 -8z"/>
<path d="M3293 2900 c0 -25 2 -35 4 -22 2 12 2 32 0 45 -2 12 -4 2 -4 -23z"/>
<path d="M3310 2909 c0 -17 4 -28 10 -24 11 7 9 55 -2 55 -4 0 -8 -14 -8 -31z"/>
<path d="M641 2914 c0 -11 3 -14 6 -6 3 7 2 16 -1 19 -3 4 -6 -2 -5 -13z"/>
<path d="M1422 2873 c70 -2 187 -2 260 0 73 1 16 3 -127 3 -143 0 -203 -2
-133 -3z"/>
<path d="M1820 2870 c0 -5 7 -7 15 -4 8 4 15 8 15 10 0 2 -7 4 -15 4 -8 0 -15
-4 -15 -10z"/>
<path d="M1861 2864 c0 -11 3 -14 6 -6 3 7 2 16 -1 19 -3 4 -6 -2 -5 -13z"/>
<path d="M3140 2870 c-12 -8 -10 -10 8 -10 13 0 20 4 17 10 -7 12 -6 12 -25 0z"/>
<path d="M518 2854 c-38 -20 -36 -28 2 -9 17 9 30 18 30 20 0 7 -1 6 -32 -11z"/>
<path d="M1333 2843 c15 -2 37 -2 50 0 12 2 0 4 -28 4 -27 0 -38 -2 -22 -4z"/>
<path d="M1745 2841 c7 -12 85 -12 85 0 0 5 -21 9 -46 9 -25 0 -43 -4 -39 -9z"/>
<path d="M3400 2833 c5 -2 8 -9 4 -14 -3 -5 0 -9 6 -9 15 0 7 23 -8 26 -7 1
-8 0 -2 -3z"/>
<path d="M1220 2819 c0 -5 14 -9 32 -9 36 0 32 10 -6 14 -14 2 -26 -1 -26 -5z"/>
<path d="M1850 2818 c0 -5 16 -8 35 -8 19 0 35 3 35 8 0 4 -16 7 -35 7 -19 0
-35 -3 -35 -7z"/>
<path d="M2889 2823 c-6 -37 -2 -232 5 -230 10 3 14 237 4 237 -5 0 -9 -3 -9
-7z"/>
<path d="M3439 2828 c0 -2 -2 -32 -4 -68 -3 -59 -2 -62 11 -40 16 29 18 96 4
105 -5 3 -10 5 -11 3z"/>
<path d="M2948 2813 c6 -2 18 -2 25 0 6 3 1 5 -13 5 -14 0 -19 -2 -12 -5z"/>
<path d="M3003 2813 c9 -2 23 -2 30 0 6 3 -1 5 -18 5 -16 0 -22 -2 -12 -5z"/>
<path d="M3068 2813 c7 -3 16 -2 19 1 4 3 -2 6 -13 5 -11 0 -14 -3 -6 -6z"/>
<path d="M3133 2813 c15 -2 39 -2 55 0 15 2 2 4 -28 4 -30 0 -43 -2 -27 -4z"/>
<path d="M3238 2813 c7 -3 16 -2 19 1 4 3 -2 6 -13 5 -11 0 -14 -3 -6 -6z"/>
<path d="M3298 2813 c6 -2 18 -2 25 0 6 3 1 5 -13 5 -14 0 -19 -2 -12 -5z"/>
<path d="M3160 2791 c0 -6 5 -13 10 -16 6 -3 10 1 10 9 0 9 -4 16 -10 16 -5 0
-10 -4 -10 -9z"/>
<path d="M3413 2755 c0 -27 2 -38 4 -22 2 15 2 37 0 50 -2 12 -4 0 -4 -28z"/>
<path d="M2923 2745 c0 -22 2 -30 4 -17 2 12 2 30 0 40 -3 9 -5 -1 -4 -23z"/>
<path d="M2945 2760 c4 -6 11 -8 16 -5 14 9 11 15 -7 15 -8 0 -12 -5 -9 -10z"/>
<path d="M3008 2763 c7 -3 16 -2 19 1 4 3 -2 6 -13 5 -11 0 -14 -3 -6 -6z"/>
<path d="M3050 2766 c0 -2 7 -6 15 -10 8 -3 15 -1 15 4 0 6 -7 10 -15 10 -8 0
-15 -2 -15 -4z"/>
<path d="M3118 2763 c7 -3 16 -2 19 1 4 3 -2 6 -13 5 -11 0 -14 -3 -6 -6z"/>
<path d="M3248 2763 c7 -3 16 -2 19 1 4 3 -2 6 -13 5 -11 0 -14 -3 -6 -6z"/>
<path d="M3358 2763 c7 -3 16 -2 19 1 4 3 -2 6 -13 5 -11 0 -14 -3 -6 -6z"/>
<path d="M3172 2735 c0 -16 2 -22 5 -12 2 9 2 23 0 30 -3 6 -5 -1 -5 -18z"/>
<path d="M3760 2740 c-23 -23 -25 -43 -9 -91 16 -45 71 -139 83 -139 12 0 1
186 -13 223 -12 32 -33 35 -61 7z"/>
<path d="M291 2734 c0 -11 3 -14 6 -6 3 7 2 16 -1 19 -3 4 -6 -2 -5 -13z"/>
<path d="M331 2734 c0 -11 3 -14 6 -6 3 7 2 16 -1 19 -3 4 -6 -2 -5 -13z"/>
<path d="M1022 2720 c0 -14 2 -19 5 -12 2 6 2 18 0 25 -3 6 -5 1 -5 -13z"/>
<path d="M898 2723 c6 -2 18 -2 25 0 6 3 1 5 -13 5 -14 0 -19 -2 -12 -5z"/>
<path d="M968 2723 c7 -3 16 -2 19 1 4 3 -2 6 -13 5 -11 0 -14 -3 -6 -6z"/>
<path d="M2941 2675 l-2 -55 25 12 c22 9 26 18 26 55 0 38 -2 43 -23 43 -22 0
-24 -5 -26 -55z"/>
<path d="M3000 2689 c0 -32 3 -40 14 -36 8 3 31 9 50 13 31 5 36 10 36 35 0
24 -4 29 -23 29 -17 0 -23 -6 -25 -27 -3 -38 -12 -42 -12 -5 0 25 -4 32 -20
32 -17 0 -20 -7 -20 -41z"/>
<path d="M3110 2699 c0 -27 3 -30 23 -23 28 8 27 6 20 32 -3 13 -13 22 -24 22
-15 0 -19 -7 -19 -31z"/>
<path d="M3190 2704 c0 -19 4 -25 14 -21 8 3 17 1 20 -6 2 -7 5 3 5 21 1 26
-3 32 -19 32 -15 0 -20 -7 -20 -26z"/>
<path d="M3240 2700 c0 -25 4 -30 25 -30 21 0 25 5 25 30 0 25 -4 30 -25 30
-21 0 -25 -5 -25 -30z"/>
<path d="M3300 2696 c0 -25 5 -35 20 -39 17 -4 20 0 20 34 0 32 -3 39 -20 39
-16 0 -20 -7 -20 -34z"/>
<path d="M3350 2690 c0 -29 5 -42 19 -50 11 -5 21 -10 23 -10 2 0 4 23 5 50 3
47 1 50 -22 50 -22 0 -25 -4 -25 -40z"/>
<path d="M3666 2678 c-25 -35 -20 -76 12 -107 30 -27 132 -87 132 -76 0 17
-116 205 -126 205 -1 0 -10 -10 -18 -22z"/>
<path d="M3957 2623 c-47 -72 -81 -133 -73 -133 16 0 128 75 146 97 22 28 21
63 -2 90 -17 21 -25 16 -71 -54z"/>
<path d="M358 2673 c6 -2 18 -2 25 0 6 3 1 5 -13 5 -14 0 -19 -2 -12 -5z"/>
<path d="M2923 2645 c0 -22 2 -30 4 -17 2 12 2 30 0 40 -3 9 -5 -1 -4 -23z"/>
<path d="M3411 2664 c0 -11 3 -14 6 -6 3 7 2 16 -1 19 -3 4 -6 -2 -5 -13z"/>
<path d="M155 2660 c-3 -5 -1 -10 4 -10 6 0 11 5 11 10 0 6 -2 10 -4 10 -3 0
-8 -4 -11 -10z"/>
<path d="M948 2663 c7 -3 16 -2 19 1 4 3 -2 6 -13 5 -11 0 -14 -3 -6 -6z"/>
<path d="M3860 2580 l0 -85 20 32 c19 32 60 110 60 115 0 2 -15 3 -32 2 -18
-1 -36 4 -40 10 -4 6 -8 -27 -8 -74z"/>
<path d="M358 2603 c6 -2 18 -2 25 0 6 3 1 5 -13 5 -14 0 -19 -2 -12 -5z"/>
<path d="M3615 2571 c-10 -18 7 -61 32 -81 20 -15 41 -20 92 -20 l66 0 -45 28
c-101 63 -139 82 -145 73z"/>
<path d="M3995 2534 c-44 -25 -84 -50 -89 -55 -14 -13 97 -12 127 2 30 14 50
48 45 77 -3 21 -7 20 -83 -24z"/>
<path d="M332 2540 c0 -14 2 -19 5 -12 2 6 2 18 0 25 -3 6 -5 1 -5 -13z"/>
<path d="M1062 2525 c0 -16 2 -22 5 -12 2 9 2 23 0 30 -3 6 -5 -1 -5 -18z"/>
<path d="M378 2493 c7 -3 16 -2 19 1 4 3 -2 6 -13 5 -11 0 -14 -3 -6 -6z"/>
<path d="M418 2493 c7 -3 16 -2 19 1 4 3 -2 6 -13 5 -11 0 -14 -3 -6 -6z"/>
<path d="M1095 2436 c-10 -21 -37 -57 -61 -81 -46 -48 -158 -125 -181 -125 -7
0 -13 -4 -13 -10 0 -33 106 20 184 91 65 60 114 135 98 151 -7 7 -15 -1 -27
-26z"/>
<path d="M1058 2453 c7 -3 16 -2 19 1 4 3 -2 6 -13 5 -11 0 -14 -3 -6 -6z"/>
<path d="M3676 2451 c-18 -7 -18 -8 5 -24 31 -22 37 -22 84 8 l40 24 -55 0
c-30 0 -64 -4 -74 -8z"/>
<path d="M3900 2456 c0 -9 68 -46 83 -46 9 0 23 8 33 17 17 17 16 18 -22 25
-45 8 -94 10 -94 4z"/>
<path d="M388 2413 c6 -2 18 -2 25 0 6 3 1 5 -13 5 -14 0 -19 -2 -12 -5z"/>
<path d="M3610 2335 c0 -19 5 -35 10 -35 6 0 10 7 10 15 0 8 9 15 20 15 14 0
20 -7 20 -21 0 -11 5 -17 10 -14 6 3 10 19 10 35 0 16 -4 32 -10 35 -5 3 -10
-1 -10 -9 0 -9 -9 -16 -20 -16 -11 0 -20 7 -20 15 0 8 -4 15 -10 15 -5 0 -10
-16 -10 -35z"/>
<path d="M3700 2336 c0 -37 21 -53 54 -40 18 7 23 74 6 74 -5 0 -10 -13 -10
-30 0 -20 -5 -30 -15 -30 -10 0 -15 10 -15 30 0 17 -4 30 -10 30 -5 0 -10 -15
-10 -34z"/>
<path d="M3795 2340 c-21 -41 -19 -53 5 -38 16 10 24 10 40 0 24 -15 25 -12 3
33 -20 43 -28 44 -48 5z m30 0 c3 -5 1 -10 -4 -10 -6 0 -11 5 -11 10 0 6 2 10
4 10 3 0 8 -4 11 -10z"/>
<path d="M3862 2338 c16 -48 25 -53 40 -23 l14 26 13 -27 c7 -15 16 -23 20
-18 14 16 31 74 21 74 -5 0 -12 -11 -16 -25 -7 -28 -24 -24 -24 6 0 29 -27 23
-35 -8 l-7 -28 -10 28 c-5 15 -14 27 -18 27 -5 0 -4 -15 2 -32z"/>
<path d="M3990 2355 c-6 -8 -10 -22 -8 -31 3 -19 55 -38 64 -23 3 5 -6 9 -20
9 -35 0 -33 20 2 21 l27 1 -30 8 c-29 7 -28 9 15 23 8 3 3 6 -11 6 -15 1 -32
-6 -39 -14z"/>
<path d="M4060 2336 c0 -19 5 -38 10 -41 6 -4 10 10 10 34 0 23 -4 41 -10 41
-5 0 -10 -15 -10 -34z"/>
<path d="M400 2334 c0 -9 -8 -23 -17 -30 -16 -12 -15 -13 10 -14 23 0 27 4 27
30 0 17 -4 30 -10 30 -5 0 -10 -7 -10 -16z"/>
<path d="M948 2344 c-5 -4 -8 -16 -8 -26 0 -10 -5 -18 -11 -18 -5 0 -7 -5 -3
-11 10 -17 36 15 32 41 -1 12 -6 18 -10 14z"/>
<path d="M465 2230 c3 -5 11 -10 16 -10 6 0 7 5 4 10 -3 6 -11 10 -16 10 -6 0
-7 -4 -4 -10z"/>
<path d="M2841 2174 c0 -11 3 -14 6 -6 3 7 2 16 -1 19 -3 4 -6 -2 -5 -13z"/>
<path d="M3471 2174 c0 -11 3 -14 6 -6 3 7 2 16 -1 19 -3 4 -6 -2 -5 -13z"/>
<path d="M2928 2153 c6 -2 18 -2 25 0 6 3 1 5 -13 5 -14 0 -19 -2 -12 -5z"/>
<path d="M2978 2153 c7 -3 16 -2 19 1 4 3 -2 6 -13 5 -11 0 -14 -3 -6 -6z"/>
<path d="M2316 2129 c-3 -13 -7 -35 -8 -49 -3 -24 -7 -25 -78 -31 l-75 -5 80
-4 80 -4 -70 -6 -70 -6 66 -2 c66 -2 67 -2 73 -33 7 -35 26 -30 26 7 0 24 0
24 113 26 l112 2 -115 6 -115 6 115 4 115 4 -110 5 -110 6 -3 40 c-4 48 -19
67 -26 34z"/>
<path d="M1438 2083 c6 -2 18 -2 25 0 6 3 1 5 -13 5 -14 0 -19 -2 -12 -5z"/>
<path d="M2080 2042 c0 -20 4 -31 10 -27 6 4 8 11 5 16 -4 5 9 10 27 10 l33 2
-35 7 -35 7 35 4 35 4 -37 6 c-37 5 -38 4 -38 -29z"/>
<path d="M2188 2063 c6 -2 18 -2 25 0 6 3 1 5 -13 5 -14 0 -19 -2 -12 -5z"/>
<path d="M2258 2063 c6 -2 18 -2 25 0 6 3 1 5 -13 5 -14 0 -19 -2 -12 -5z"/>
<path d="M2632 2040 c0 -19 2 -27 5 -17 2 9 2 25 0 35 -3 9 -5 1 -5 -18z"/>
<path d="M500 2035 l0 -25 130 0 130 0 0 25 0 25 -130 0 -130 0 0 -25z"/>
<path d="M1070 2039 c0 -4 11 -26 24 -50 36 -63 56 -151 56 -240 0 -240 -173
-443 -413 -485 -86 -15 -187 -7 -254 21 -20 8 -38 13 -40 11 -3 -2 20 -13 50
-24 217 -82 413 -29 565 150 52 62 68 91 96 177 39 119 14 289 -59 406 -13 22
-25 37 -25 34z"/>
<path d="M1470 2005 c0 -14 5 -25 10 -25 6 0 10 11 10 25 0 14 -4 25 -10 25
-5 0 -10 -11 -10 -25z"/>
<path d="M910 2006 c0 -8 -8 -17 -17 -19 -14 -4 -12 -5 5 -6 16 -1 22 5 22 19
0 11 -2 20 -5 20 -3 0 -5 -6 -5 -14z"/>
<path d="M362 1990 c-8 -13 -8 -20 -2 -20 6 0 13 7 17 15 9 24 -1 27 -15 5z"/>
<path d="M4247 1940 c53 -130 41 -312 -30 -435 -19 -33 -28 -40 -52 -39 -20 1
-22 0 -7 -3 12 -2 22 -8 22 -13 0 -11 -121 -120 -133 -120 -5 0 -4 -6 3 -14
10 -13 16 -11 43 12 107 90 171 188 197 301 25 106 -3 288 -55 357 -8 10 -2
-10 12 -46z"/>
<path d="M3747 1972 c3 -12 -42 -76 -141 -200 -80 -100 -146 -184 -146 -188 0
-4 68 78 150 181 134 167 170 225 141 225 -5 0 -7 -8 -4 -18z"/>
<path d="M3802 1970 c-1 -18 18 -46 69 -100 l71 -75 -65 75 c-36 41 -67 86
-70 100 l-4 25 -1 -25z"/>
<path d="M1518 1923 c7 -3 16 -2 19 1 4 3 -2 6 -13 5 -11 0 -14 -3 -6 -6z"/>
<path d="M3625 1920 c-3 -5 -2 -10 4 -10 5 0 13 5 16 10 3 6 2 10 -4 10 -5 0
-13 -4 -16 -10z"/>
<path d="M3660 1922 c0 -4 9 -8 20 -9 11 -1 20 2 20 8 0 5 -9 9 -20 9 -11 0
-20 -4 -20 -8z"/>
<path d="M3868 1923 c7 -3 16 -2 19 1 4 3 -2 6 -13 5 -11 0 -14 -3 -6 -6z"/>
<path d="M3908 1923 c6 -2 18 -2 25 0 6 3 1 5 -13 5 -14 0 -19 -2 -12 -5z"/>
<path d="M1503 1853 c9 -2 25 -2 35 0 9 3 1 5 -18 5 -19 0 -27 -2 -17 -5z"/>
<path d="M1568 1853 c7 -3 16 -2 19 1 4 3 -2 6 -13 5 -11 0 -14 -3 -6 -6z"/>
<path d="M2777 1805 c-17 -35 -17 -35 3 -25 33 18 47 60 20 60 -3 0 -14 -16
-23 -35z"/>
<path d="M1410 1788 c0 -2 9 -11 20 -21 11 -9 20 -13 20 -7 0 5 -9 14 -20 20
-11 6 -20 9 -20 8z"/>
<path d="M4031 1688 c51 -60 94 -108 97 -108 6 0 -68 87 -133 155 -31 33 -15
12 36 -47z"/>
<path d="M1350 1769 c0 -5 5 -7 10 -4 6 3 10 8 10 11 0 2 -4 4 -10 4 -5 0 -10
-5 -10 -11z"/>
<path d="M1380 1760 c-8 -5 -10 -10 -5 -10 6 0 17 5 25 10 8 5 11 10 5 10 -5
0 -17 -5 -25 -10z"/>
<path d="M1860 1745 c0 -9 -7 -18 -15 -21 -20 -8 -9 -24 16 -24 14 0 19 7 19
30 0 17 -4 30 -10 30 -5 0 -10 -7 -10 -15z"/>
<path d="M1405 1730 l-30 -6 33 -5 c18 -3 35 -2 38 2 7 12 -9 16 -41 9z"/>
<path d="M1290 1720 c-8 -5 -10 -10 -5 -10 6 0 17 5 25 10 8 5 11 10 5 10 -5
0 -17 -5 -25 -10z"/>
<path d="M1421 1684 c0 -11 3 -14 6 -6 3 7 2 16 -1 19 -3 4 -6 -2 -5 -13z"/>
<path d="M805 1660 c3 -5 11 -10 16 -10 6 0 7 5 4 10 -3 6 -11 10 -16 10 -6 0
-7 -4 -4 -10z"/>
<path d="M3407 1610 c59 -90 83 -172 83 -281 0 -128 -46 -244 -132 -335 -183
-194 -460 -215 -678 -52 -30 23 -49 34 -41 25 26 -32 146 -105 207 -126 76
-25 177 -36 230 -23 39 9 43 8 53 -14 19 -43 32 -157 25 -219 -23 -204 -173
-378 -369 -430 -110 -28 -248 -14 -345 35 -22 11 -40 18 -40 15 0 -11 104 -56
162 -70 257 -61 520 94 593 350 23 76 22 193 0 273 -10 37 -14 66 -9 71 5 4
31 16 58 26 68 25 164 100 208 163 l37 54 11 -44 c32 -122 150 -199 265 -173
125 29 189 103 190 220 0 105 -66 187 -177 216 -61 17 -132 1 -195 -43 -34
-23 -45 -27 -40 -14 4 10 7 47 7 82 l0 64 223 2 c122 0 208 3 190 5 -19 3 -34
11 -36 21 -4 15 -5 15 -6 1 -1 -14 -16 -16 -96 -17 -52 0 -95 3 -95 7 0 4 14
8 32 9 50 4 46 11 -5 10 -26 0 -45 -5 -44 -11 1 -5 -23 -11 -55 -13 -53 -3
-76 7 -45 19 6 3 -6 6 -29 6 -39 1 -41 3 -53 42 -7 23 -15 47 -18 55 -4 11 49
14 323 17 l329 2 -332 3 -331 2 -21 36 c-25 43 -25 41 -3 47 11 3 8 5 -8 6
-15 0 -32 7 -39 14 -8 6 -1 -8 16 -33z m133 -210 c0 -5 -6 -10 -14 -10 -8 0
-18 5 -21 10 -3 6 3 10 14 10 12 0 21 -4 21 -10z m150 -299 c0 -5 9 -7 20 -4
17 4 20 0 20 -24 0 -16 -7 -38 -15 -49 -13 -18 -14 -17 -15 19 0 20 -4 37 -8
37 -12 0 -34 -49 -27 -60 3 -4 -4 -6 -16 -3 -16 4 -17 8 -7 14 10 7 9 9 -4 9
-10 0 -18 3 -18 6 0 11 23 49 34 56 15 11 36 10 36 -1z"/>
<path d="M1188 1633 c6 -2 18 -2 25 0 6 3 1 5 -13 5 -14 0 -19 -2 -12 -5z"/>
<path d="M1238 1633 c7 -3 16 -2 19 1 4 3 -2 6 -13 5 -11 0 -14 -3 -6 -6z"/>
<path d="M4168 1613 c7 -3 16 -2 19 1 4 3 -2 6 -13 5 -11 0 -14 -3 -6 -6z"/>
<path d="M346 1585 c-3 -8 -1 -15 4 -15 6 0 10 7 10 15 0 8 -2 15 -4 15 -2 0
-6 -7 -10 -15z"/>
<path d="M946 1585 c-3 -8 -1 -15 4 -15 6 0 10 7 10 15 0 8 -2 15 -4 15 -2 0
-6 -7 -10 -15z"/>
<path d="M2506 1561 c-34 -15 -36 -18 -22 -30 9 -7 16 -9 16 -3 0 5 11 13 24
16 13 3 26 13 30 21 7 18 1 18 -48 -4z"/>
<path d="M2750 1565 c0 -13 35 -15 255 -15 220 0 255 2 255 15 0 13 -35 15
-255 15 -220 0 -255 -2 -255 -15z"/>
<path d="M1448 1563 c6 -2 18 -2 25 0 6 3 1 5 -13 5 -14 0 -19 -2 -12 -5z"/>
<path d="M4136 1525 c-3 -8 -1 -15 4 -15 6 0 10 7 10 15 0 8 -2 15 -4 15 -2 0
-6 -7 -10 -15z"/>
<path d="M4191 1524 c0 -11 3 -14 6 -6 3 7 2 16 -1 19 -3 4 -6 -2 -5 -13z"/>
<path d="M550 1516 c0 -11 22 -14 100 -15 83 -1 100 1 100 14 0 12 -17 15
-100 15 -79 0 -100 -3 -100 -14z"/>
<path d="M1380 1496 c0 -8 -7 -21 -15 -30 -19 -19 -1 -33 20 -16 17 14 20 60
5 60 -5 0 -10 -6 -10 -14z"/>
<path d="M3548 1503 c7 -3 16 -2 19 1 4 3 -2 6 -13 5 -11 0 -14 -3 -6 -6z"/>
<path d="M4028 1503 c7 -3 16 -2 19 1 4 3 -2 6 -13 5 -11 0 -14 -3 -6 -6z"/>
<path d="M4068 1503 c6 -2 18 -2 25 0 6 3 1 5 -13 5 -14 0 -19 -2 -12 -5z"/>
<path d="M3638 1413 c7 -3 16 -2 19 1 4 3 -2 6 -13 5 -11 0 -14 -3 -6 -6z"/>
<path d="M3793 1413 c15 -2 39 -2 55 0 15 2 2 4 -28 4 -30 0 -43 -2 -27 -4z"/>
<path d="M1327 1270 c15 -17 31 -19 156 -27 62 -3 97 -2 97 5 0 6 -45 12 -107
15 -60 3 -119 8 -133 12 -20 6 -23 5 -13 -5z"/>
<path d="M3075 1270 c3 -5 -7 -11 -22 -13 -20 -3 -16 -4 15 -6 43 -1 58 13 22
22 -11 3 -18 1 -15 -3z"/>
<path d="M1676 1243 c-5 -18 -16 -33 -25 -35 -14 -3 -14 -4 0 -10 26 -10 41 7
36 43 l-3 34 -8 -32z"/>
<path d="M2730 1255 c0 -8 2 -15 4 -15 2 0 6 7 10 15 3 8 1 15 -4 15 -6 0 -10
-7 -10 -15z"/>
<path d="M3120 1255 c0 -8 2 -15 4 -15 2 0 6 7 10 15 3 8 1 15 -4 15 -6 0 -10
-7 -10 -15z"/>
<path d="M2428 1253 c6 -2 18 -2 25 0 6 3 1 5 -13 5 -14 0 -19 -2 -12 -5z"/>
<path d="M2640 1256 c0 -2 18 -6 40 -8 22 -2 40 0 40 4 0 5 -18 8 -40 8 -22 0
-40 -2 -40 -4z"/>
<path d="M2858 1253 c7 -3 16 -2 19 1 4 3 -2 6 -13 5 -11 0 -14 -3 -6 -6z"/>
<path d="M2898 1253 c6 -2 18 -2 25 0 6 3 1 5 -13 5 -14 0 -19 -2 -12 -5z"/>
<path d="M1808 1233 c34 -2 90 -2 125 0 34 2 6 3 -63 3 -69 0 -97 -1 -62 -3z"/>
<path d="M2051 1224 c0 -11 3 -14 6 -6 3 7 2 16 -1 19 -3 4 -6 -2 -5 -13z"/>
<path d="M2101 1224 c0 -11 3 -14 6 -6 3 7 2 16 -1 19 -3 4 -6 -2 -5 -13z"/>
<path d="M2193 1233 c43 -2 110 -2 150 0 40 1 5 3 -78 3 -82 0 -115 -2 -72 -3z"/>
<path d="M2491 1224 c0 -11 3 -14 6 -6 3 7 2 16 -1 19 -3 4 -6 -2 -5 -13z"/>
<path d="M2720 1210 c0 -11 -4 -20 -8 -20 -4 0 -8 -9 -9 -20 -1 -11 4 -20 13
-20 10 0 14 12 14 40 0 22 -2 40 -5 40 -3 0 -5 -9 -5 -20z"/>
<path d="M2853 1203 c-14 -29 -9 -43 8 -26 6 6 9 20 7 32 -3 19 -4 19 -15 -6z"/>
<path d="M3103 1205 c-9 -20 -8 -25 3 -25 8 0 14 10 14 25 0 31 -2 31 -17 0z"/>
<path d="M3263 1205 c-9 -20 -8 -25 3 -25 8 0 14 10 14 25 0 31 -2 31 -17 0z"/>
<path d="M1376 1188 c9 -17 22 -47 29 -67 8 -20 14 -28 14 -18 1 18 -45 117
-54 117 -3 0 2 -14 11 -32z"/>
<path d="M2138 1173 c7 -3 16 -2 19 1 4 3 -2 6 -13 5 -11 0 -14 -3 -6 -6z"/>
<path d="M928 1163 c6 -2 18 -2 25 0 6 3 1 5 -13 5 -14 0 -19 -2 -12 -5z"/>
<path d="M3090 1166 c0 -9 30 -14 35 -6 4 6 -3 10 -14 10 -12 0 -21 -2 -21 -4z"/>
<path d="M4156 1155 c39 -133 44 -214 19 -310 -45 -173 -187 -315 -359 -361
-106 -28 -250 -13 -348 37 -21 11 -38 17 -38 14 0 -12 127 -65 179 -75 283
-54 548 134 592 420 14 87 1 189 -32 255 -10 22 -17 31 -13 20z"/>
<path d="M931 1094 c0 -12 7 -28 17 -35 15 -12 16 -12 6 1 -7 8 -14 24 -17 35
-4 19 -5 19 -6 -1z"/>
<path d="M886 1063 c-6 -14 -5 -15 5 -6 7 7 10 15 7 18 -3 3 -9 -2 -12 -12z"/>
<path d="M2521 1009 c-112 -236 -426 -339 -661 -219 -22 11 -40 18 -40 15 0
-4 28 -19 63 -34 67 -31 148 -51 202 -51 33 0 35 -2 37 -37 11 -270 -149 -485
-400 -534 -73 -14 -189 -7 -247 14 -75 27 -80 27 -31 3 169 -84 390 -46 540
94 105 99 156 219 156 372 0 97 -7 89 82 103 88 14 181 77 295 200 15 16 53
110 53 130 0 30 -16 12 -49 -56z"/>
<path d="M2613 1073 c20 -2 54 -2 75 0 20 2 3 4 -38 4 -41 0 -58 -2 -37 -4z"/>
<path d="M3228 1073 c34 -2 90 -2 125 0 34 2 6 3 -63 3 -69 0 -97 -1 -62 -3z"/>
<path d="M988 1063 c12 -2 32 -2 45 0 12 2 2 4 -23 4 -25 0 -35 -2 -22 -4z"/>
<path d="M960 1036 c0 -2 8 -10 18 -17 15 -13 16 -12 3 4 -13 16 -21 21 -21
13z"/>
<path d="M850 1000 c-6 -11 -8 -20 -6 -20 3 0 10 9 16 20 6 11 8 20 6 20 -3 0
-10 -9 -16 -20z"/>
<path d="M1010 970 c12 -16 24 -30 26 -30 3 0 -4 14 -16 30 -12 17 -24 30 -26
30 -3 0 4 -13 16 -30z"/>
<path d="M815 940 c-9 -16 -13 -30 -11 -30 3 0 12 14 21 30 9 17 13 30 11 30
-3 0 -12 -13 -21 -30z"/>
<path d="M1040 926 c0 -2 8 -10 18 -17 15 -13 16 -12 3 4 -13 16 -21 21 -21
13z"/>
<path d="M718 903 c12 -2 32 -2 45 0 12 2 2 4 -23 4 -25 0 -35 -2 -22 -4z"/>
<path d="M1098 903 c12 -2 32 -2 45 0 12 2 2 4 -23 4 -25 0 -35 -2 -22 -4z"/>
<path d="M763 845 c-9 -20 -8 -25 3 -25 8 0 14 10 14 25 0 31 -2 31 -17 0z"/>
<path d="M1101 852 c-13 -25 -14 -32 -2 -32 9 0 23 41 16 48 -2 2 -8 -5 -14
-16z"/>
<path d="M2623 828 c2 -7 -10 -29 -27 -48 l-31 -35 38 34 c36 34 48 61 26 61
-6 0 -9 -6 -6 -12z"/>
<path d="M2671 824 c0 -11 3 -14 6 -6 3 7 2 16 -1 19 -3 4 -6 -2 -5 -13z"/>
<path d="M2568 793 c7 -3 16 -2 19 1 4 3 -2 6 -13 5 -11 0 -14 -3 -6 -6z"/>
<path d="M2775 710 c49 -49 92 -90 95 -90 2 0 -36 41 -85 90 -49 50 -92 90
-95 90 -2 0 36 -40 85 -90z"/>
<path d="M3673 705 c0 -33 2 -45 4 -27 2 18 2 45 0 60 -2 15 -4 0 -4 -33z"/>
<path d="M2460 635 c-24 -25 -42 -45 -39 -45 3 0 25 20 49 45 24 25 42 45 39
45 -3 0 -25 -20 -49 -45z"/>
<path d="M1558 653 c6 -2 18 -2 25 0 6 3 1 5 -13 5 -14 0 -19 -2 -12 -5z"/>
<path d="M1608 653 c6 -2 18 -2 25 0 6 3 1 5 -13 5 -14 0 -19 -2 -12 -5z"/>
<path d="M1160 626 c0 -8 -6 -17 -12 -19 -8 -3 -6 -6 5 -6 11 -1 17 6 17 19 0
11 -2 20 -5 20 -3 0 -5 -6 -5 -14z"/>
<path d="M2090 611 c-6 -12 -7 -21 -1 -21 10 0 24 30 17 37 -2 3 -9 -5 -16
-16z"/>
<path d="M1563 593 c9 -2 23 -2 30 0 6 3 -1 5 -18 5 -16 0 -22 -2 -12 -5z"/>
<path d="M1618 593 c6 -2 18 -2 25 0 6 3 1 5 -13 5 -14 0 -19 -2 -12 -5z"/>
<path d="M3640 576 c0 -8 5 -18 10 -21 6 -3 10 1 10 9 0 8 -4 18 -10 21 -5 3
-10 -1 -10 -9z"/>
<path d="M3697 583 c-10 -9 -9 -23 1 -23 5 0 9 7 9 15 0 17 -1 18 -10 8z"/>
<path d="M2358 563 c7 -3 16 -2 19 1 4 3 -2 6 -13 5 -11 0 -14 -3 -6 -6z"/>
<path d="M670 535 c0 -13 129 -66 185 -76 33 -6 92 -9 130 -6 73 6 165 32 165
48 0 12 -6 12 -78 -11 -113 -36 -258 -23 -364 31 -21 11 -38 17 -38 14z"/>
<path d="M2321 494 c0 -11 3 -14 6 -6 3 7 2 16 -1 19 -3 4 -6 -2 -5 -13z"/>
<path d="M2361 494 c0 -11 3 -14 6 -6 3 7 2 16 -1 19 -3 4 -6 -2 -5 -13z"/>
<path d="M2528 503 c72 -2 192 -2 265 0 72 1 13 3 -133 3 -146 0 -205 -2 -132
-3z"/>
<path d="M2965 501 c-3 -5 -1 -12 5 -16 5 -3 10 1 10 9 0 18 -6 21 -15 7z"/>
</g>
</svg>
